# xmcd CD database file
#
# Track frame offsets:
#	150
#	19393
#	39430
#	52155
#	66746
#	87612
#	105490
#	118167
#	136709
#	158740
#	170422
#	184939
#
# Disc length: 2707 seconds
#
# Revision: 0
# Processed by: cddbd v1.5.1PL2 Copyright (c) Steve Scherf et al.
# Submitted via: CDex 1.51
#
DISCID=ac0a910c
DTITLE=Skalpel - Konfusion
DYEAR=2005
DGENRE=Jazz
TTITLE0=Shivers
TTITLE1=Flying Officer
TTITLE2=Long Distance Call
TTITLE3=Hiperbole
TTITLE4=Deep Breath
TTITLE5=Konfusion
TTITLE6=Test Drive
TTITLE7=Wooden Toy
TTITLE8=Split
TTITLE9=Seaweed
TTITLE10=6th Dimension [Bonus Track]
TTITLE11=Laboratorium [Bonus Track]
EXTD=YEAR: 2005
EXTT0=
EXTT1=
EXTT2=
EXTT3=
EXTT4=
EXTT5=
EXTT6=
EXTT7=
EXTT8=
EXTT9=
EXTT10=
EXTT11=
PLAYORDER=
